<?xml version="1.0" encoding="UTF-8" standalone="no"?>
<svg
   version="1.1"
   id="Layer_1"
   x="0px"
   y="0px"
   width="100%"
   viewBox="0 0 1375 144"
   enable-background="new 0 0 1375 144"
   xml:space="preserve"
   sodipodi:docname="logo_titre.svg"
   inkscape:version="1.3.1 (9b9bdc1480, 2023-11-25, custom)"
   xmlns:inkscape="http://www.inkscape.org/namespaces/inkscape"
   xmlns:sodipodi="http://sodipodi.sourceforge.net/DTD/sodipodi-0.dtd"
   xmlns="http://www.w3.org/2000/svg"
   xmlns:svg="http://www.w3.org/2000/svg"><defs
   id="defs102" /><sodipodi:namedview
   id="namedview102"
   pagecolor="#ffffff"
   bordercolor="#000000"
   borderopacity="0.25"
   inkscape:showpageshadow="2"
   inkscape:pageopacity="0.0"
   inkscape:pagecheckerboard="0"
   inkscape:deskcolor="#d1d1d1"
   showgrid="false"
   inkscape:zoom="0.98109091"
   inkscape:cx="937.22202"
   inkscape:cy="117.21646"
   inkscape:window-width="1920"
   inkscape:window-height="946"
   inkscape:window-x="0"
   inkscape:window-y="27"
   inkscape:window-maximized="1"
   inkscape:current-layer="Layer_1" />

<path
   fill="#222745"
   opacity="1.000000"
   stroke="none"
   d=" M593.116150,78.119659   C589.209961,61.127781 587.920288,44.378502 597.227417,28.451696   C604.665405,15.723596 620.635742,10.990146 632.460571,12.387994   C640.127380,13.294319 647.364563,15.351817 653.337952,20.784237   C662.508118,29.123888 665.290527,39.972927 665.957520,51.697350   C666.155762,55.181522 665.957397,58.688259 665.619141,62.866234   C664.788208,65.640770 664.330200,67.747803 663.761292,69.824440   C659.442505,85.589180 647.758423,95.053879 631.469360,96.218735   C615.252380,97.378441 601.553284,93.366859 593.116150,78.119659  M611.977722,58.541492   C612.722412,63.419853 612.957336,68.447563 614.332458,73.141197   C616.341553,79.998589 621.402893,83.080986 628.699280,82.967194   C635.267395,82.864761 640.194214,79.144081 642.236633,72.551300   C645.157532,63.122826 644.353271,53.572071 642.993408,43.219021   C642.376343,40.823132 641.980286,38.342587 641.100708,36.047295   C638.500122,29.260891 633.497681,25.873302 626.686035,26.009472   C620.413086,26.134874 615.778442,29.314734 614.090942,36.634426   C612.520264,43.447285 612.468689,50.610363 611.977722,58.541492  z"
   id="path2" />
<path
   fill="#222746"
   opacity="1.000000"
   stroke="none"
   d=" M730.083435,119.037552   C731.052490,113.938461 732.021545,108.839363 733.393005,103.453873   C736.492798,104.010582 739.139648,105.171638 741.901245,105.610207   C744.851196,106.078674 747.909302,105.865242 751.197632,106.196114   C758.331421,107.326683 761.897827,103.698608 761.848389,95.436058   C761.367249,92.244080 760.943420,89.447845 760.519592,86.651611   C755.372375,94.807076 748.412720,97.061440 739.892944,96.216042   C731.468384,95.380089 725.902100,90.743668 722.266235,83.390991   C717.660645,66.443008 719.034607,45.651070 738.827209,37.148357   C747.628723,33.367367 756.744995,34.911526 765.776123,36.441746   C766.591980,36.579979 767.390625,36.816845 768.204956,36.966507   C775.402527,38.289268 776.062622,38.926949 775.945801,46.443211   C775.868774,51.402596 774.767639,56.396648 775.128235,61.301426   C775.816711,70.665718 777.229431,79.976418 778.323853,89.311440   C778.592346,91.602264 778.792603,93.901093 779.040100,97.062195   C778.346375,113.228081 768.941772,122.977791 753.596436,122.761421   C745.742798,122.650681 737.920105,120.349014 730.083435,119.037552  M740.935608,72.740334   C740.976990,74.228058 740.616943,75.883911 741.153137,77.164368   C741.971680,79.118767 743.067078,81.774818 744.680542,82.349960   C746.310730,82.931068 749.191406,81.873466 750.655823,80.563126   C752.374573,79.025230 753.836853,76.553177 754.210571,74.288307   C755.115662,68.802940 755.324219,63.202656 755.526001,56.870113   C754.849731,54.181194 754.858582,49.808826 753.339600,49.190605   C750.950806,48.218445 747.444824,49.495399 744.594482,50.397320   C743.452454,50.758701 742.152588,52.586700 742.026184,53.856785   C741.431396,59.832954 741.219055,65.847183 740.935608,72.740334  z"
   id="path3" />
<path
   fill="#222745"
   opacity="1.000000"
   stroke="none"
   d=" M1232.402954,122.223190   C1231.936890,120.190742 1231.080566,118.161011 1231.066528,116.125435   C1230.954590,99.996017 1230.919678,83.864853 1231.041138,67.735573   C1231.093872,60.730640 1230.695190,53.962269 1227.734985,47.377075   C1226.568726,44.782669 1225.863037,39.617371 1227.109741,38.757568   C1230.483032,36.430950 1234.987793,35.676453 1239.122559,34.602257   C1239.682251,34.456852 1240.885864,35.935528 1241.460815,36.866348   C1243.093994,39.510292 1244.555664,42.260059 1246.507446,45.716579   C1247.676758,44.202015 1248.795288,43.097702 1249.508911,41.775047   C1255.962646,29.811806 1273.411987,32.796844 1279.954712,41.825417   C1285.509521,49.490658 1286.673340,58.208015 1286.624878,67.911179   C1284.712402,77.139938 1281.420166,84.735550 1274.366699,90.348686   C1267.298584,95.973320 1259.115356,97.099617 1249.535889,95.864258   C1250.136597,99.557892 1250.592163,102.359062 1251.047729,105.160233   C1251.026489,109.808022 1251.005127,114.455826 1250.526733,119.521736   C1244.180786,120.700966 1238.291870,121.462082 1232.402954,122.223190  M1251.021973,68.074684   C1251.016235,71.059196 1250.959595,74.044655 1251.015381,77.028023   C1251.123047,82.782646 1254.310669,84.939743 1259.332642,82.047127   C1261.681519,80.694237 1264.257568,77.984070 1264.740356,75.501953   C1265.799316,70.057739 1265.589355,64.366722 1265.687012,58.036827   C1265.065186,55.484650 1264.762573,52.795685 1263.741943,50.414478   C1262.429199,47.351753 1259.891846,46.397270 1256.832764,48.176582   C1252.455933,50.722446 1249.057129,62.038544 1251.021973,68.074684  z"
   id="path4" />
<path
   fill="#212645"
   opacity="1.000000"
   stroke="none"
   d=" M1201.077026,96.020943   C1200.131104,92.973679 1199.185181,89.926430 1198.216064,86.174545   C1197.940552,84.337105 1197.589844,83.216034 1197.452759,82.069443   C1196.876099,77.244370 1194.392456,75.467331 1189.427490,75.888245   C1183.809692,76.364479 1178.113770,76.164162 1172.465088,75.934402   C1169.398193,75.809669 1167.989258,76.969292 1167.213013,79.841141   C1166.042969,84.170349 1164.790283,88.521027 1163.011230,92.618805   C1162.366333,94.104164 1160.183228,95.690216 1158.570801,95.842628   C1153.785400,96.295006 1148.934570,96.056732 1144.109375,96.088440   C1145.958618,89.986389 1147.488770,83.765144 1149.715332,77.804054   C1157.202271,57.759357 1165.036621,37.844200 1172.485107,17.785563   C1173.811279,14.214490 1175.560791,12.801364 1179.330811,12.951035   C1192.109009,13.458337 1190.686646,10.434689 1195.694214,24.367180   C1204.220581,48.089191 1213.002197,71.719414 1221.323486,95.708008   C1214.339355,96.025536 1207.708130,96.023239 1201.077026,96.020943  M1185.094238,44.133141   C1184.315063,41.248512 1183.536011,38.363880 1182.756836,35.479252   C1179.105713,43.162876 1176.554565,50.749992 1174.273438,58.417458   C1174.116333,58.946274 1175.974243,60.074596 1177.546021,61.454376   C1180.185181,61.629070 1182.822021,61.892418 1185.463867,61.957481   C1189.329834,62.052685 1190.594971,60.219662 1189.233521,56.564423   C1187.792358,52.694969 1186.401733,48.806602 1185.094238,44.133141  z"
   id="path5" />
<path
   fill="#222745"
   opacity="1.000000"
   stroke="none"
   d=" M1300.369141,122.199097   C1299.914429,120.163383 1299.083862,118.130981 1299.065918,116.091423   C1298.947266,102.630409 1298.703247,89.159096 1299.096069,75.708549   C1299.418091,64.686264 1298.509766,53.966042 1294.587646,43.609230   C1293.111816,39.712273 1294.717163,37.914337 1298.437012,36.660027   C1307.699829,33.536579 1307.654175,33.401295 1314.133423,45.942211   C1315.155762,44.617371 1316.062744,43.615143 1316.776245,42.490166   C1323.098022,32.522121 1335.267578,30.921391 1344.227905,38.703964   C1351.442505,44.970226 1354.011230,53.019875 1354.048584,63.085495   C1354.126587,72.398781 1351.702515,79.992622 1346.167114,86.434135   C1338.851440,94.947433 1329.249634,97.447243 1317.538330,95.937531   C1318.135010,99.583160 1318.591431,102.371506 1319.047852,105.159851   C1319.028564,109.804352 1319.009277,114.448860 1318.532471,119.504578   C1312.172974,120.676903 1306.270996,121.438004 1300.369141,122.199097  M1319.021606,67.075310   C1319.015747,70.389214 1318.964844,73.703773 1319.013550,77.016869   C1319.101074,82.967041 1322.376953,85.085152 1327.552368,81.946251   C1329.851440,80.551903 1332.363525,77.720634 1332.707642,75.252800   C1333.488892,69.649551 1332.986694,63.867374 1333.089844,57.314770   C1332.446411,54.776257 1332.205688,52.035378 1331.057739,49.750378   C1329.621582,46.891994 1326.977051,46.589005 1324.299927,48.370594   C1320.115845,51.155060 1317.165039,61.259899 1319.021606,67.075310  z"
   id="path6" />
<path
   fill="#222745"
   opacity="1.000000"
   stroke="none"
   d=" M248.217239,83.319000   C246.011932,73.223175 244.405884,63.128941 248.510284,53.098946   C254.412155,38.676537 267.843445,31.491245 283.967194,34.254814   C289.160248,35.144894 294.295776,36.370441 299.734863,38.159851   C300.088074,66.804848 300.164093,94.732521 299.781555,122.663132   C293.918549,121.807030 288.514130,120.947983 283.109680,120.088936   C282.588257,114.281105 282.066864,108.473282 281.410645,101.886391   C281.275818,98.225861 281.275818,95.344391 281.275818,92.473091   C277.247467,93.921936 274.109894,95.706718 270.801270,96.119080   C260.276245,97.430832 252.882492,92.641586 248.217239,83.319000  M281.190308,56.064217   C280.680603,53.339260 280.914124,48.890980 279.493469,48.278275   C277.144562,47.265240 273.687317,48.552265 270.787445,49.247131   C269.889465,49.462311 269.067688,50.795826 268.581757,51.797222   C265.930450,57.261330 264.932800,62.931248 266.940186,69.791176   C266.994476,71.619743 267.040192,73.448616 267.104919,75.276810   C267.219086,78.500809 267.351654,82.520103 271.302979,82.519371   C273.821228,82.518906 277.519562,80.307953 278.634186,78.066452   C281.902802,71.493324 283.383423,64.331833 281.190308,56.064217  z"
   id="path7" />
<path
   fill="#222746"
   opacity="1.000000"
   stroke="none"
   d=" M841.819580,73.760727   C843.524170,79.824341 845.228821,85.887947 846.574463,92.285576   C844.776489,93.018326 843.327698,93.384811 841.900146,93.820915   C831.102051,97.119530 831.105713,97.122849 826.980469,86.682487   C826.891785,86.457947 826.564941,86.327469 826.043213,85.905754   C822.468689,93.638206 816.357788,96.747597 807.970398,96.401077   C799.475403,96.050102 793.910339,91.341385 789.109741,85.100204   C786.674438,74.728592 784.910095,64.242371 788.705200,53.906364   C794.265991,38.761593 808.454895,31.222355 825.150146,34.329178   C830.419678,35.309780 835.562195,36.972267 840.881836,39.133049   C840.996338,43.103260 840.913086,46.265343 841.003052,49.422489   C841.234314,57.536396 841.542297,65.648117 841.819580,73.760727  M821.943420,56.041576   C821.125549,53.304607 824.059631,48.954422 819.727783,47.996590   C816.944641,47.381184 813.478516,48.719925 810.649414,49.946278   C809.323242,50.521145 808.250061,52.816181 807.986877,54.478069   C807.375671,58.338673 807.326111,62.288219 807.131775,67.089180   C807.378906,70.687401 807.296875,74.352592 808.009949,77.855980   C808.374268,79.645912 810.036987,82.365356 811.337463,82.500320   C813.461121,82.720718 816.213806,81.677780 817.870422,80.222374   C819.455383,78.829803 820.598083,76.305168 820.853455,74.149971   C821.529358,68.445068 821.619934,62.670826 821.943420,56.041576  z"
   id="path8" />
<path
   fill="#222746"
   opacity="1.000000"
   stroke="none"
   d=" M167.819550,73.760666   C169.524231,79.824333 171.228912,85.888000 172.574554,92.285645   C170.776581,93.018326 169.327774,93.384789 167.900238,93.820869   C157.102020,97.119514 157.105698,97.122841 152.980438,86.682594   C152.891708,86.458031 152.565033,86.327492 152.043350,85.905678   C148.468704,93.638084 142.357819,96.747696 133.970398,96.401062   C125.475471,96.049973 119.910202,91.341583 115.109764,85.100136   C112.674339,74.728531 110.910187,64.242340 114.705208,53.906292   C120.265686,38.761894 134.455261,31.222330 151.150314,34.329205   C156.419785,35.309830 161.562347,36.972275 166.881927,39.133041   C166.996399,43.103233 166.912994,46.265316 167.002945,49.422455   C167.234116,57.536358 167.542191,65.648079 167.819550,73.760666  M133.131729,67.089195   C133.378860,70.687408 133.296951,74.352585 134.009979,77.855972   C134.374298,79.645920 136.037003,82.365364 137.337479,82.500328   C139.461151,82.720718 142.213776,81.677780 143.870331,80.222328   C145.455307,78.829781 146.598190,76.305199 146.853531,74.150009   C147.529419,68.445122 147.619873,62.670872 147.943390,56.041618   C147.125610,53.304611 150.059677,48.954460 145.727814,47.996605   C142.944626,47.381187 139.478485,48.719898 136.649460,49.946266   C135.323242,50.521172 134.249939,52.816181 133.986771,54.478085   C133.375458,58.338665 133.326080,62.288231 133.131729,67.089195  z"
   id="path9" />
<path
   fill="#222746"
   opacity="1.000000"
   stroke="none"
   d=" M495.085419,82.068245   C492.468414,68.339729 491.059845,54.655396 500.619385,42.785938   C507.743958,33.939880 517.444519,31.810913 528.334412,33.620319   C540.033630,35.564209 546.163818,43.376057 548.784058,53.991497   C550.142639,59.495491 549.613281,65.465485 549.632690,71.925652   C548.703186,74.692345 548.195923,76.803093 547.432434,78.816696   C543.905212,88.118599 537.291260,94.198784 527.485901,95.775681   C516.765747,97.499680 506.442657,96.605385 498.724548,87.370865   C497.949799,86.443916 496.843781,85.793793 495.891510,85.015205   C495.891510,85.015205 495.957306,85.021019 496.175781,84.769203   C495.958008,83.701012 495.521698,82.884628 495.085419,82.068245  M528.961975,58.194733   C528.243408,55.656059 527.917786,52.911327 526.718567,50.624699   C524.674072,46.726170 519.982239,45.899639 516.987732,48.493725   C514.114319,50.982895 512.497864,59.046116 514.019897,64.062279   C514.292908,68.314812 514.380920,72.589661 514.890625,76.813644   C515.407654,81.098793 518.258728,82.232841 522.338013,82.074829   C526.493469,81.913864 528.601440,79.673004 528.842529,76.061935   C529.221069,70.392365 528.958252,64.679970 528.961975,58.194733  z"
   id="path10" />
<path
   fill="#212645"
   opacity="1.000000"
   stroke="none"
   d=" M875.986267,68.198875   C875.986267,68.198875 876.035645,68.589546 875.789307,69.141769   C875.337830,78.413124 875.132690,87.132271 874.467529,95.905334   C868.708435,96.003059 863.409363,96.046867 858.110352,96.090668   C857.740967,93.656776 857.140930,91.232208 857.042175,88.787384   C856.613098,78.167282 856.715576,67.508659 855.820740,56.932060   C855.413940,52.123161 853.240356,47.438335 851.674561,42.762074   C850.677185,39.783245 851.835999,38.355106 854.589844,37.675453   C854.909485,37.596565 855.201660,37.412811 855.514893,37.300831   C864.442139,34.109188 864.447937,34.106014 869.631592,42.130032   C870.078857,42.822384 870.386047,43.605240 870.895020,44.618382   C879.089417,35.920914 887.740479,31.497869 898.742371,35.475834   C905.468689,37.907864 908.105652,43.480076 908.985474,51.005787   C908.958740,66.536324 908.936951,81.200775 908.454956,95.914177   C902.366577,96.005600 896.738525,96.048073 891.110413,96.090546   C891.073669,85.943993 891.088562,75.796791 890.960632,65.651375   C890.931641,63.357452 890.405579,61.069798 890.038269,57.951900   C889.563232,53.595413 890.257507,48.972843 885.525879,48.273335   C880.749634,47.567211 878.340027,51.648869 877.316040,55.485321   C876.230652,59.551785 876.377563,63.947159 875.986267,68.198875  z"
   id="path11" />
<path
   fill="#212645"
   opacity="1.000000"
   stroke="none"
   d=" M184.110443,96.090584   C183.741043,93.656708 183.140884,91.232147 183.042114,88.787338   C182.613037,78.167229 182.715454,67.508629 181.820724,56.932026   C181.413910,52.123135 179.240372,47.438290 177.674576,42.762024   C176.677139,39.783169 177.836029,38.355087 180.589890,37.675461   C180.909500,37.596581 181.201706,37.412769 181.514908,37.300793   C190.442093,34.109180 190.447891,34.106033 195.631638,42.130032   C196.078918,42.822376 196.386002,43.605301 196.894974,44.618374   C205.089417,35.920895 213.740555,31.497885 224.742416,35.475842   C231.468704,37.907871 234.105652,43.480122 234.985474,51.005791   C234.958725,66.536316 234.936966,81.200768 234.454987,95.914177   C228.366669,96.005608 222.738571,96.048073 217.110474,96.090538   C217.073746,85.943985 217.088791,75.796768 216.960815,65.651367   C216.931870,63.357441 216.405594,61.069786 216.038239,57.951900   C215.563309,53.595394 216.257462,48.972908 211.525925,48.273346   C206.749664,47.567169 204.340088,51.648880 203.316132,55.485271   C202.230774,59.551682 202.377808,63.947021 201.986618,68.198708   C201.986618,68.198708 202.035889,68.589584 201.789429,69.141853   C201.337845,78.413216 201.132721,87.132317 200.467499,95.905327   C194.708405,96.003029 189.409424,96.046806 184.110443,96.090584  z"
   id="path12" />
<path
   fill="#212645"
   opacity="1.000000"
   stroke="none"
   d=" M316.102875,88.102737   C315.736816,72.359390 315.488647,56.611874 314.931519,40.875298   C314.768341,36.266850 316.394867,34.531605 320.928955,34.962185   C324.712219,35.321457 328.530762,35.309509 332.671265,36.173565   C333.006317,44.635025 332.903656,52.386616 333.037445,60.134121   C333.122253,65.041740 333.559326,69.943275 333.838409,74.847542   C334.523743,77.913857 333.681854,82.243347 338.116486,82.741478   C342.721954,83.258804 345.570190,80.012451 346.766296,75.941635   C347.920349,72.013908 348.737427,67.873734 348.905975,63.793983   C349.234863,55.833008 349.128540,47.846474 348.957336,39.875778   C348.878174,36.189217 350.303650,34.736286 353.934692,34.981762   C358.061829,35.260773 362.203857,35.319168 366.668457,36.188095   C366.992615,42.995773 366.872589,49.091545 367.016724,55.181061   C367.148285,60.738403 367.566010,66.288971 367.857544,71.842529   C369.477142,78.326889 371.096741,84.811256 372.566498,91.814598   C356.704010,97.271782 358.797882,99.002182 353.208862,87.312225   C353.098969,87.082314 352.711578,86.985062 352.449890,86.832001   C341.744293,98.177803 331.688446,99.304695 317.739777,90.757568   C317.582489,90.661209 317.190094,90.948524 316.907471,91.056740   C316.907471,91.056740 316.995911,91.000473 317.262054,90.811310   C317.053101,89.782349 316.577972,88.942543 316.102875,88.102737  z"
   id="path13" />
<path
   fill="#222745"
   opacity="1.000000"
   stroke="none"
   d=" M1044.934448,79.967171   C1046.482422,80.188499 1048.298096,81.040855 1049.530640,80.518204   C1054.050903,78.601463 1055.346191,80.891624 1056.060547,84.699020   C1056.419189,86.610596 1057.184326,88.445900 1057.485596,90.747871   C1054.076904,92.293221 1051.023193,93.741341 1047.806641,94.461586   C1033.843384,97.588211 1020.271729,98.565132 1009.783630,85.950180   C1009.676697,85.821602 1009.200745,85.999878 1008.897034,86.034912   C1008.897034,86.034904 1008.963623,86.018021 1009.212219,85.792686   C1009.006653,84.743256 1008.552490,83.919159 1008.098328,83.095047   C1005.629395,70.909958 1004.225037,58.863289 1010.856628,47.317703   C1018.782898,33.518040 1038.530396,28.439440 1051.053833,36.983948   C1056.563599,40.743198 1058.233765,46.200214 1058.597412,52.881203   C1053.730957,69.058563 1040.069946,71.358238 1026.996338,74.210335   C1029.439941,82.328552 1038.167603,84.886787 1044.934448,79.967171  M1028.618652,49.216198   C1026.577759,52.913113 1025.179443,56.693039 1026.148926,60.344608   C1030.123535,58.600475 1033.493164,57.217216 1036.757202,55.618423   C1037.515381,55.247028 1038.451904,54.083874 1038.377197,53.384129   C1038.149658,51.249710 1038.137695,48.466782 1036.823608,47.205135   C1034.162964,44.650604 1031.346924,46.235382 1028.618652,49.216198  z"
   id="path14" />
<path
   fill="#212645"
   opacity="1.000000"
   stroke="none"
   d=" M53.003056,37.117710   C53.003056,37.117710 53.018009,37.579132 52.788673,38.169304   C52.373631,40.890648 52.034336,43.021263 52.026543,45.153088   C51.964748,62.050220 51.966034,78.947586 51.486412,95.901360   C45.386814,96.002190 39.748749,96.046539 34.110680,96.090889   C33.741646,93.832329 33.067253,91.575699 33.052944,89.314896   C32.957413,74.218697 33.022053,59.121555 32.980354,44.024872   C32.974449,41.886799 32.673458,39.749546 32.344315,36.829140   C32.179581,33.493347 32.179581,30.940327 32.179581,28.068226   C25.603064,28.068226 19.850945,28.068226 14.098825,28.068226   C13.767856,24.304474 13.236919,20.539963 13.251251,16.777525   C13.254688,15.874873 15.070538,14.195911 16.052729,14.196001   C35.171024,14.197746 54.289303,14.395763 73.714828,15.230982   C73.628769,18.365196 73.077591,20.809288 72.878998,23.281702   C72.577644,27.033588 70.739052,28.268139 67.032722,28.014290   C62.471107,27.701864 57.871803,27.939686 53.003056,27.939686   C53.003056,31.531326 53.003056,34.324516 53.003056,37.117710  z"
   id="path15" />
<path
   fill="#212645"
   opacity="1.000000"
   stroke="none"
   d=" M984.890076,81.913544   C988.284546,82.276848 991.679565,82.635155 995.073242,83.005493   C996.868103,83.201355 998.660645,83.418190 1000.828613,84.357742   C1001.203003,88.513908 1001.203003,91.937881 1001.203003,96.087837   C985.436768,96.087837 970.272888,96.087837 955.109070,96.087837   C953.851196,88.781746 956.392029,82.666641 960.458923,76.701385   C964.321350,71.036079 967.453369,64.872787 971.226562,58.385345   C973.298950,55.156830 975.051270,52.471428 977.309265,49.011082   C970.086548,49.011082 964.008545,49.011082 957.930481,49.011078   C957.371704,45.159946 956.637451,41.319214 956.408142,37.448566   C956.364441,36.710510 958.305725,35.170898 959.346680,35.156986   C971.588806,34.993347 983.839417,34.874748 996.071716,35.257130   C997.715637,35.308521 999.851257,37.919540 1000.700623,39.818676   C1001.506042,41.619751 1000.921265,44.042576 1000.607178,46.743336   C993.035034,58.555614 985.803528,69.816536 978.035095,81.913544   C981.291504,81.913544 983.090759,81.913544 984.890076,81.913544  z"
   id="path16" />
<path
   fill="#212645"
   opacity="1.000000"
   stroke="none"
   d=" M460.163452,90.218437   C459.777130,87.775681 459.064972,85.334206 459.055359,82.889961   C458.968414,60.774670 459.078979,38.658428 458.939728,16.543671   C458.912750,12.264391 460.120239,10.019203 464.738647,9.873424   C468.654419,9.749822 472.550293,8.997624 476.731934,9.236167   C477.006134,30.830486 476.978302,51.712292 477.039124,72.593842   C477.045227,74.689468 477.588287,76.783524 477.882141,78.878311   C478.242859,82.360123 480.675232,83.505386 483.497009,82.753937   C487.882080,81.586182 489.220306,83.200813 489.174591,87.312508   C489.152985,89.250946 489.713135,91.195854 489.570679,93.545441   C487.065491,94.496986 485.026550,95.201668 482.928436,95.556580   C474.613312,96.963142 466.437927,97.588638 460.163452,90.218437  z"
   id="path17" />
<path
   fill="#212645"
   opacity="1.000000"
   stroke="none"
   d=" M420.095276,90.077583   C419.734039,65.225601 419.399261,40.373169 418.980957,15.522145   C418.923065,12.083006 420.184814,10.277333 423.747498,9.983449   C427.988922,9.633573 432.207336,9.004086 436.721161,9.202757   C437.004456,30.596842 436.977234,51.283985 437.035797,71.970886   C437.042236,74.245880 437.540558,76.519478 437.810791,78.793724   C438.136047,81.908875 440.268860,83.563614 442.926971,82.776810   C449.254578,80.903831 449.203064,85.400887 449.984528,89.192230   C450.181335,90.147049 450.019653,91.175751 449.777924,92.875580   C439.176331,96.986153 428.957794,99.229355 420.095276,90.077583  z"
   id="path18" />
<path
   fill="#222745"
   opacity="1.000000"
   stroke="none"
   d=" M72.962219,35.954803   C78.233978,34.757393 82.562706,35.007286 84.899117,41.222992   C86.051399,44.288471 88.183052,42.527565 89.871284,40.765308   C95.641106,34.742512 102.327866,32.049259 110.782654,36.245499   C109.622009,42.168774 108.212234,47.427895 106.823471,52.608662   C98.004158,51.517288 93.681175,53.786186 92.043839,60.308205   C91.484291,62.537060 91.335854,64.912506 91.310867,67.224342   C91.222832,75.372276 91.172211,83.523376 91.314995,91.669647   C91.370216,94.819740 90.422661,96.184059 87.069168,96.035606   C82.424202,95.829971 77.760696,96.042839 73.105133,96.076508   C72.738770,93.983757 72.090530,91.895592 72.056358,89.797432   C71.929390,82.003059 71.422569,74.149757 72.161331,66.424042   C72.959007,58.082184 69.186844,50.996387 67.506302,43.342075   C67.190674,41.904510 67.146210,40.407410 67.269760,38.341240   C69.362679,37.148064 71.162453,36.551437 72.962219,35.954803  z"
   id="path19" />
<path
   fill="#222746"
   opacity="1.000000"
   stroke="none"
   d=" M699.023560,71.020355   C699.010986,79.055855 698.998352,87.091362 698.483459,95.569023   C692.357910,96.038124 686.734680,96.065063 681.111389,96.092003   C680.744141,94.162048 680.136108,92.241608 680.059326,90.300163   C679.895386,86.152946 679.707031,81.969032 680.062195,77.846115   C681.059631,66.266975 678.709412,55.192581 675.427368,44.242146   C674.219543,40.212231 675.460022,37.864845 679.574829,36.978355   C681.192383,36.629883 682.841125,36.298325 684.369690,35.691864   C687.491028,34.453445 689.406433,35.520351 690.754333,38.428692   C691.630493,40.319180 692.798218,42.074539 694.205322,44.538422   C701.141663,36.788761 707.998901,30.089088 718.543945,37.253586   C717.053833,42.810589 715.672058,47.707146 714.313232,52.522224   C703.125061,51.440216 698.991150,55.331608 698.942688,66.552963   C698.936279,68.041946 698.994995,69.531219 699.023560,71.020355  z"
   id="path20" />
<path
   fill="#222745"
   opacity="1.000000"
   stroke="none"
   d=" M1072.110352,96.091553   C1071.741455,93.664627 1071.141479,91.247002 1071.043457,88.809174   C1070.617065,78.219299 1070.718262,67.591530 1069.832275,57.044357   C1069.429443,52.247917 1067.312256,47.560867 1065.719971,42.910736   C1064.598999,39.637260 1066.142090,38.512047 1068.887817,37.505104   C1078.026123,34.153954 1077.999634,34.081882 1085.003906,43.521870   C1091.592163,37.223644 1098.356567,30.703554 1108.885254,36.384529   C1107.820068,42.295307 1106.476196,47.521515 1105.157593,52.649380   C1095.669556,51.389008 1090.796021,54.596001 1089.956787,62.279797   C1089.708130,64.557541 1089.963379,66.890327 1089.987793,69.197884   C1089.987793,69.197884 1090.035889,69.589935 1089.789795,70.142868   C1089.338745,79.081192 1089.133667,87.466583 1088.468506,95.906044   C1082.708984,96.003922 1077.409790,96.047737 1072.110352,96.091553  z"
   id="path21" />
<path
   fill="#222746"
   opacity="1.000000"
   stroke="none"
   d=" M940.945740,34.006004   C941.310608,36.943974 941.958313,39.878883 941.990112,42.820450   C942.112122,54.100910 942.063782,65.383614 942.015564,76.665215   C942.003540,79.488319 941.994690,81.830154 945.868652,82.291130   C947.086731,82.436066 948.453979,84.788727 948.986206,86.386345   C949.700012,88.528923 949.668884,90.919670 949.547485,93.683243   C940.133667,97.236664 931.441284,98.325935 924.186401,90.249329   C923.799927,73.036667 923.377991,55.824577 923.097046,38.610191   C923.075500,37.289097 924.049072,35.951744 925.262695,34.386078   C930.958740,34.102146 935.952271,34.054077 940.945740,34.006004  z"
   id="path22" />
<path
   fill="#222746"
   opacity="1.000000"
   stroke="none"
   d=" M402.926025,78.951996   C403.474182,79.880836 403.983795,81.587265 404.576538,81.616638   C409.747681,81.872894 410.521179,85.115860 410.359619,89.311363   C410.310699,90.581535 410.808533,91.872757 410.616821,93.579391   C401.342102,97.306831 392.790741,98.119911 385.128723,91.144234   C384.762390,73.625175 384.361145,56.106644 384.099915,38.586021   C384.080261,37.267864 385.059204,35.934834 386.275696,34.367348   C391.969849,34.088688 396.962280,34.051407 401.954681,34.014130   C401.983032,34.458725 402.011383,34.903320 402.026184,36.150604   C402.010834,49.033443 401.968781,61.113850 402.048248,73.193466   C402.060883,75.114822 402.619720,77.032578 402.926025,78.951996  z"
   id="path23" />
<path
   fill="#8E8F8F"
   opacity="1.000000"
   stroke="none"
   d=" M593.072815,78.515511   C601.553284,93.366859 615.252380,97.378441 631.469360,96.218735   C647.758423,95.053879 659.442505,85.589180 663.761292,69.824440   C664.330200,67.747803 664.788208,65.640770 665.590454,63.341110   C666.575256,74.540016 663.522644,84.931839 656.486206,93.837807   C651.565491,100.066010 644.429871,103.229393 636.800842,104.910652   C626.889343,107.094910 617.355652,105.891800 608.287659,101.091820   C599.291077,96.329712 594.854858,88.547142 593.072815,78.515511  z"
   id="path24" />
<path
   fill="#8F8F8F"
   opacity="1.000000"
   stroke="none"
   d=" M115.065460,85.497002   C119.910202,91.341583 125.475471,96.049973 133.970398,96.401062   C142.357819,96.747696 148.468704,93.638084 152.043350,85.905678   C152.565033,86.327492 152.891708,86.458031 152.980438,86.682594   C157.105698,97.122841 157.102020,97.119514 167.900238,93.820869   C169.327774,93.384789 170.776581,93.018326 172.626495,92.627434   C175.431107,99.455521 174.823776,101.258598 168.387238,102.953743   C157.566238,105.803589 160.425507,107.787773 153.663803,94.189201   C147.086517,104.916275 138.350739,108.937584 126.695053,103.274918   C119.406929,99.734131 116.214691,93.499092 115.065460,85.497002  z"
   id="path25" />
<path
   fill="#8F8F8F"
   opacity="1.000000"
   stroke="none"
   d=" M789.065430,85.497063   C793.910339,91.341385 799.475403,96.050102 807.970398,96.401077   C816.357788,96.747597 822.468689,93.638206 826.043213,85.905754   C826.564941,86.327469 826.891785,86.457947 826.980469,86.682487   C831.105713,97.122849 831.102051,97.119530 841.900146,93.820915   C843.327698,93.384811 844.776489,93.018326 846.626343,92.627350   C849.431213,99.454750 848.823547,101.258751 842.387451,102.953705   C831.567078,105.803200 834.425354,107.788551 827.663940,94.189095   C821.086609,104.916069 812.350891,108.937546 800.695129,103.274940   C793.406921,99.734161 790.214783,93.499092 789.065430,85.497063  z"
   id="path26" />
<path
   fill="#8F8F8F"
   opacity="1.000000"
   stroke="none"
   d=" M316.943024,91.451172   C317.190094,90.948524 317.582489,90.661209 317.739777,90.757568   C331.688446,99.304695 341.744293,98.177803 352.449890,86.832001   C352.711578,86.985062 353.098969,87.082314 353.208862,87.312225   C358.797882,99.002182 356.704010,97.271782 372.731812,92.131821   C375.554443,99.076408 374.756378,100.887619 368.198120,103.044106   C365.609314,103.895355 363.037933,104.799568 360.297485,105.734650   C359.219940,104.262512 358.064117,102.901764 357.149017,101.394844   C353.512360,95.406349 353.708435,95.589211 348.159454,100.261337   C340.787079,106.468712 327.327789,109.442841 319.954712,99.304192   C318.428955,97.206123 317.943481,94.351532 316.943024,91.451172  z"
   id="path27" />
<path
   fill="#909090"
   opacity="1.000000"
   stroke="none"
   d=" M1144.062988,96.538162   C1148.934570,96.056732 1153.785400,96.295006 1158.570801,95.842628   C1160.183228,95.690216 1162.366333,94.104164 1163.011230,92.618805   C1164.790283,88.521027 1166.042969,84.170349 1167.213013,79.841141   C1167.989258,76.969292 1169.398193,75.809669 1172.465088,75.934402   C1178.113770,76.164162 1183.809692,76.364479 1189.427490,75.888245   C1194.392456,75.467331 1196.876099,77.244370 1197.452759,82.069443   C1197.589844,83.216034 1197.940552,84.337105 1198.108643,85.886230   C1196.494507,85.869522 1194.971436,85.092300 1193.433960,85.062576   C1186.458984,84.927681 1179.478638,85.081039 1172.503052,84.964294   C1169.837402,84.919685 1168.399292,85.537270 1167.663940,88.494102   C1166.300171,93.977798 1164.304932,99.304436 1162.526367,104.840698   C1156.575439,104.840698 1150.633667,104.840698 1144.016724,104.840698   C1144.016724,102.154099 1144.016724,99.570992 1144.062988,96.538162  z"
   id="path28" />
<path
   fill="#909090"
   opacity="1.000000"
   stroke="none"
   d=" M495.935364,85.408875   C496.843781,85.793793 497.949799,86.443916 498.724548,87.370865   C506.442657,96.605385 516.765747,97.499680 527.485901,95.775681   C537.291260,94.198784 543.905212,88.118599 547.432434,78.816696   C548.195923,76.803093 548.703186,74.692345 549.597168,72.402451   C551.361816,88.500877 542.684509,100.748291 530.226685,104.440521   C517.361389,108.253525 501.443024,103.469833 496.625580,89.133644   C496.268463,88.070892 496.188232,86.915092 495.935364,85.408875  z"
   id="path29" />
<path
   fill="#8F8F90"
   opacity="1.000000"
   stroke="none"
   d=" M730.046814,119.475800   C737.920105,120.349014 745.742798,122.650681 753.596436,122.761421   C768.941772,122.977791 778.346375,113.228081 779.055115,97.507072   C782.104004,113.363281 775.217224,131.697708 754.942444,131.858505   C748.850159,131.906815 742.762695,130.032303 736.638794,129.342957   C730.670837,128.671219 729.019958,125.305099 730.046814,119.475800  z"
   id="path30" />
<path
   fill="#8F8F8F"
   opacity="1.000000"
   stroke="none"
   d=" M1008.936951,86.426765   C1009.200745,85.999878 1009.676697,85.821602 1009.783630,85.950180   C1020.271729,98.565132 1033.843384,97.588211 1047.806641,94.461586   C1051.023193,93.741341 1054.076904,92.293221 1057.561890,91.111389   C1057.918213,94.188889 1057.918213,97.335045 1057.918213,100.958298   C1051.227783,102.632462 1044.677612,104.488373 1038.031494,105.887741   C1025.661255,108.492348 1010.601440,98.493004 1008.936951,86.426765  z"
   id="path31" />
<path
   fill="#909090"
   opacity="1.000000"
   stroke="none"
   d=" M955.083740,96.497810   C970.272888,96.087837 985.436768,96.087837 1001.203003,96.087837   C1001.203003,91.937881 1001.203003,88.513908 1001.145142,84.641891   C1001.504517,90.874626 1001.921692,97.555420 1002.363770,104.634064   C986.635925,104.634064 971.511047,104.634064 956.476379,104.634064   C955.987183,101.968399 955.522827,99.438095 955.083740,96.497810  z"
   id="path32" />
<path
   fill="#8C8C8D"
   opacity="1.000000"
   stroke="none"
   d=" M73.055634,96.515633   C77.760696,96.042839 82.424202,95.829971 87.069168,96.035606   C90.422661,96.184059 91.370216,94.819740 91.314995,91.669647   C91.172211,83.523376 91.222832,75.372276 91.310867,67.224342   C91.335854,64.912506 91.484291,62.537060 92.043839,60.308205   C93.681175,53.786186 98.004158,51.517288 106.823471,52.608662   C108.212234,47.427895 109.622009,42.168774 111.050644,36.524612   C111.199440,39.467060 111.707748,42.835396 111.354141,46.110676   C110.991791,49.467003 109.797493,52.735268 108.945808,56.036522   C108.068581,59.436779 107.705154,62.318226 102.293823,61.291248   C96.632721,60.216869 91.895790,66.233490 91.856682,72.909523   C91.795418,83.366753 91.840439,93.824600 91.840439,104.976364   C86.369003,104.976364 80.947853,105.114159 75.547585,104.840324   C74.650513,104.794830 73.416641,103.070831 73.101479,101.914497   C72.679832,100.367516 73.002876,98.617561 73.055634,96.515633  z"
   id="path33" />
<path
   fill="#222746"
   opacity="1.000000"
   stroke="none"
   d=" M384.086456,24.056923   C383.537109,21.154497 382.342010,18.198557 382.577148,15.361140   C383.022766,9.983754 387.134430,6.340156 392.001434,6.037854   C397.738831,5.681490 401.230072,8.129011 403.071106,13.936019   C403.516357,15.340508 403.651703,16.843243 403.613586,18.852249   C398.788513,27.818686 392.972900,29.227320 384.086456,24.056923  z"
   id="path34" />
<path
   fill="#8E8E8F"
   opacity="1.000000"
   stroke="none"
   d=" M1319.464844,105.097878   C1318.591431,102.371506 1318.135010,99.583160 1317.538330,95.937531   C1329.249634,97.447243 1338.851440,94.947433 1346.167114,86.434135   C1351.702515,79.992622 1354.126587,72.398781 1354.063965,63.529629   C1356.483154,72.919533 1354.040771,82.002075 1349.746460,90.759171   C1345.337646,99.750183 1337.337402,103.862534 1328.104980,105.804611   C1325.531616,106.345955 1322.631836,105.334831 1319.464844,105.097878  z"
   id="path35" />
<path
   fill="#8E8E8F"
   opacity="1.000000"
   stroke="none"
   d=" M1251.464600,105.098236   C1250.592163,102.359062 1250.136597,99.557892 1249.535889,95.864258   C1259.115356,97.099617 1267.298584,95.973320 1274.366699,90.348686   C1281.420166,84.735550 1284.712402,77.139938 1286.595337,68.360710   C1287.418945,77.229691 1285.885376,85.741409 1280.353394,93.285812   C1273.219849,103.014206 1263.892700,107.226181 1251.464600,105.098236  z"
   id="path36" />
<path
   fill="#8E8E8F"
   opacity="1.000000"
   stroke="none"
   d=" M750.920227,105.949486   C747.909302,105.865242 744.851196,106.078674 741.901245,105.610207   C739.139648,105.171638 736.492798,104.010582 733.448242,103.059097   C726.592712,98.350998 722.569458,92.300079 722.196655,83.774536   C725.902100,90.743668 731.468384,95.380089 739.892944,96.216042   C748.412720,97.061440 755.372375,94.807076 760.519592,86.651611   C760.943420,89.447845 761.367249,92.244080 761.486267,95.496269   C757.761047,99.284645 754.340637,102.617065 750.920227,105.949486  z"
   id="path37" />
<path
   fill="#222746"
   opacity="1.000000"
   stroke="none"
   d=" M923.167603,23.217770   C922.974670,19.817419 922.018372,16.239887 922.757385,13.055852   C924.052185,7.477050 927.844971,5.457262 933.588867,6.067053   C938.224121,6.559145 942.471313,10.810509 942.945557,15.492582   C943.044739,16.471596 942.958435,17.469393 942.694458,19.144781   C938.271362,28.121201 930.962036,29.406237 923.167603,23.217770  z"
   id="path38" />
<path
   fill="#8F8F90"
   opacity="1.000000"
   stroke="none"
   d=" M1044.991455,79.610321   C1038.167603,84.886787 1029.439941,82.328552 1026.996338,74.210335   C1040.069946,71.358238 1053.730957,69.058563 1058.594482,53.286842   C1060.358643,63.856880 1056.064819,71.789085 1047.060059,77.452705   C1046.309082,77.925117 1045.715210,78.647346 1044.991455,79.610321  z"
   id="path39" />
<path
   fill="#8E8F8F"
   opacity="1.000000"
   stroke="none"
   d=" M248.160217,83.710037   C252.882492,92.641586 260.276245,97.430832 270.801270,96.119080   C274.109894,95.706718 277.247467,93.921936 281.275818,92.473091   C281.275818,95.344391 281.275818,98.225861 281.173706,101.544342   C280.302979,102.210739 279.435028,102.281944 278.780304,102.692863   C265.809509,110.833664 252.734436,101.371574 249.067505,89.827972   C248.487228,88.001228 248.411942,86.014069 248.160217,83.710037  z"
   id="path40" />
<path
   fill="#8F8F8F"
   opacity="1.000000"
   stroke="none"
   d=" M460.114044,90.622101   C466.437927,97.588638 474.613312,96.963142 482.928436,95.556580   C485.026550,95.201668 487.065491,94.496986 489.533081,93.967560   C492.516449,100.492538 491.728943,102.541245 485.200409,104.293839   C479.599548,105.797409 474.011719,107.168503 468.196411,104.159309   C462.651306,101.289932 459.689484,97.318230 460.114044,90.622101  z"
   id="path41" />
<path
   fill="#8E8E8F"
   opacity="1.000000"
   stroke="none"
   d=" M420.063110,90.487045   C428.957794,99.229355 439.176331,96.986153 449.788422,93.305222   C450.483612,96.159645 450.923523,99.289482 451.386414,102.582710   C444.379486,104.203720 438.430389,107.268250 431.400208,105.134132   C424.184479,102.943680 420.266449,98.629745 420.063110,90.487045  z"
   id="path42" />
<path
   fill="#8E8E8F"
   opacity="1.000000"
   stroke="none"
   d=" M924.130371,90.644646   C931.441284,98.325935 940.133667,97.236664 949.517761,94.116722   C952.550659,100.443916 951.225586,103.358086 944.951843,104.948975   C933.057617,107.965126 924.348755,102.163101 924.130371,90.644646  z"
   id="path43" />
<path
   fill="#909090"
   opacity="1.000000"
   stroke="none"
   d=" M385.088623,91.547409   C392.790741,98.119911 401.342102,97.306831 410.558411,93.995911   C410.956940,94.318352 411.026215,94.655952 410.984528,94.979271   C410.617310,97.828575 411.135406,102.432457 409.674988,103.184738   C405.708405,105.228012 401.273621,107.062431 396.205658,105.184837   C388.083862,102.175873 385.268066,99.256821 385.088623,91.547409  z"
   id="path44" />
<path
   fill="#909090"
   opacity="1.000000"
   stroke="none"
   d=" M72.978943,35.522263   C71.162453,36.551437 69.362679,37.148064 67.256538,37.925575   C62.606705,37.745529 58.263245,37.384605 53.461418,37.070694   C53.003056,34.324516 53.003056,31.531326 53.003056,27.939686   C57.871803,27.939686 62.471107,27.701864 67.032722,28.014290   C70.739052,28.268139 72.577644,27.033588 72.878998,23.281702   C73.077591,20.809288 73.628769,18.365196 74.039764,15.500937   C73.914856,19.986361 73.813843,24.881025 73.607689,29.771254   C73.532715,31.549515 73.206985,33.317204 72.978943,35.522263  z"
   id="path45" />
<path
   fill="#8E8E8F"
   opacity="1.000000"
   stroke="none"
   d=" M984.947510,81.555061   C983.090759,81.913544 981.291504,81.913544 978.035095,81.913544   C985.803528,69.816536 993.035034,58.555614 1000.581970,47.193954   C1002.959351,56.569782 995.644897,62.334610 991.940369,69.500969   C989.862549,73.520477 987.331665,77.305763 984.947510,81.555061  z"
   id="path46" />
<path
   fill="#8E8E8F"
   opacity="1.000000"
   stroke="none"
   d=" M1090.298340,69.016510   C1089.963379,66.890327 1089.708130,64.557541 1089.956787,62.279797   C1090.796021,54.596001 1095.669556,51.389008 1105.157593,52.649380   C1106.476196,47.521515 1107.820068,42.295307 1109.145996,36.681511   C1109.184570,39.964886 1109.553467,43.666195 1109.200684,47.297417   C1108.906860,50.322815 1107.701782,53.251240 1107.017944,56.249428   C1106.236572,59.674572 1105.870728,62.345764 1100.629150,61.280003   C1095.673218,60.272362 1092.311523,64.095802 1090.298340,69.016510  z"
   id="path47" />
<path
   fill="#8E8E8F"
   opacity="1.000000"
   stroke="none"
   d=" M699.360718,70.860954   C698.994995,69.531219 698.936279,68.041946 698.942688,66.552963   C698.991150,55.331608 703.125061,51.440216 714.313232,52.522224   C715.672058,47.707146 717.053833,42.810589 718.614624,37.621956   C717.807617,45.460258 716.821594,53.590633 715.827271,61.789108   C705.918213,59.969128 701.039917,62.964256 699.360718,70.860954  z"
   id="path48" />
<path
   fill="#919191"
   opacity="1.000000"
   stroke="none"
   d=" M1201.046875,96.422310   C1207.708130,96.023239 1214.339355,96.025536 1221.430176,96.059700   C1221.889771,98.875885 1221.889771,101.660194 1221.889771,104.720497   C1215.719604,104.720497 1209.806641,104.720497 1203.367798,104.720497   C1202.639893,102.275360 1201.828247,99.549515 1201.046875,96.422310  z"
   id="path49" />
<path
   fill="#8F8F90"
   opacity="1.000000"
   stroke="none"
   d=" M1232.282593,122.636497   C1238.291870,121.462082 1244.180786,120.700966 1250.492798,119.988220   C1250.915894,122.834114 1250.915894,125.631638 1250.915894,128.836365   C1245.950684,129.589569 1241.032837,129.862869 1236.411865,131.178970   C1232.367310,132.330917 1231.811279,130.749100 1231.991089,127.518852   C1232.073975,126.030609 1232.106812,124.539574 1232.282593,122.636497  z"
   id="path50" />
<path
   fill="#8F8F90"
   opacity="1.000000"
   stroke="none"
   d=" M1300.258911,122.624344   C1306.270996,121.438004 1312.172974,120.676903 1318.497925,119.970291   C1319.152954,128.825760 1319.157959,128.852966 1307.875244,130.922058   C1305.483765,131.360626 1303.041138,131.520416 1300.148682,131.865067   C1300.148682,128.900406 1300.148682,125.974998 1300.258911,122.624344  z"
   id="path51" />
<path
   fill="#919191"
   opacity="1.000000"
   stroke="none"
   d=" M34.064972,96.540436   C39.748749,96.046539 45.386814,96.002190 51.714314,95.969971   C52.403744,95.982109 52.868786,96.083710 52.868786,96.083710   C52.868786,98.855606 52.868786,101.627502 52.868786,104.698601   C46.671848,104.698601 40.659885,104.698601 34.019264,104.698601   C34.019264,102.125809 34.019264,99.557899 34.064972,96.540436  z"
   id="path52" />
<path
   fill="#919191"
   opacity="1.000000"
   stroke="none"
   d=" M217.064972,96.510895   C222.738571,96.048073 228.366669,96.005608 234.687897,95.975693   C235.381027,95.988235 235.855133,96.074043 235.855133,96.074043   C235.855133,98.865524 235.855133,101.657013 235.855133,104.722565   C230.025558,104.722565 224.427750,104.722565 218.256195,104.722565   C217.865448,102.260895 217.442459,99.596069 217.064972,96.510895  z"
   id="path53" />
<path
   fill="#919191"
   opacity="1.000000"
   stroke="none"
   d=" M891.064941,96.510910   C896.738525,96.048073 902.366577,96.005600 908.687866,95.975716   C909.381042,95.988304 909.855225,96.074219 909.855225,96.074219   C909.855225,98.865677 909.855225,101.657135 909.855225,104.722610   C904.025452,104.722610 898.427673,104.722610 892.256226,104.722610   C891.865479,102.260857 891.442444,99.596062 891.064941,96.510910  z"
   id="path54" />
<path
   fill="#909090"
   opacity="1.000000"
   stroke="none"
   d=" M283.063293,120.534744   C288.514130,120.947983 293.918549,121.807030 299.887634,122.684280   C300.452271,122.702477 300.589905,122.534790 300.589905,122.534790   C300.739197,125.621735 300.888489,128.708679 301.051849,132.087189   C294.685120,130.880768 288.972473,129.798294 283.016937,128.669800   C283.016937,125.929573 283.016937,123.455063 283.063293,120.534744  z"
   id="path55" />
<path
   fill="#919191"
   opacity="1.000000"
   stroke="none"
   d=" M1072.064941,96.541023   C1077.409790,96.047737 1082.708984,96.003922 1088.699951,95.970779   C1089.391724,95.981445 1089.863037,96.077446 1089.863037,96.077446   C1089.863037,98.849533 1089.863037,101.621620 1089.863037,104.695831   C1084.009033,104.695831 1078.328247,104.695831 1072.019287,104.695831   C1072.019287,102.125717 1072.019287,99.558105 1072.064941,96.541023  z"
   id="path56" />
<path
   fill="#919191"
   opacity="1.000000"
   stroke="none"
   d=" M184.064835,96.540169   C189.409424,96.046806 194.708405,96.003029 200.699371,95.970322   C201.391373,95.981400 201.863251,96.077805 201.863251,96.077805   C201.863251,98.849892 201.863251,101.621979 201.863251,104.696014   C196.008591,104.696014 190.327682,104.696014 184.019226,104.696014   C184.019226,102.125214 184.019226,99.557480 184.064835,96.540169  z"
   id="path57" />
<path
   fill="#919191"
   opacity="1.000000"
   stroke="none"
   d=" M14.058010,28.519894   C19.850945,28.068226 25.603064,28.068226 32.179581,28.068226   C32.179581,30.940327 32.179581,33.493347 32.093376,36.490814   C26.227291,36.935253 20.447405,36.935253 14.017197,36.935253   C14.017197,34.134571 14.017197,31.553068 14.058010,28.519894  z"
   id="path58" />
<path
   fill="#919191"
   opacity="1.000000"
   stroke="none"
   d=" M681.065369,96.541428   C686.734680,96.065063 692.357910,96.038124 698.440857,96.040421   C698.900513,98.843941 698.900513,101.618225 698.900513,104.695122   C693.012024,104.695122 687.330200,104.695122 681.019348,104.695122   C681.019348,102.126495 681.019348,99.558670 681.065369,96.541428  z"
   id="path59" />
<path
   fill="#919191"
   opacity="1.000000"
   stroke="none"
   d=" M858.064758,96.540237   C863.409363,96.046867 868.708435,96.003059 874.699341,95.970299   C875.391296,95.981346 875.863159,96.077614 875.863159,96.077614   C875.863159,98.850838 875.863159,101.624054 875.863159,105.000000   C872.788086,105.000000 869.876526,105.000000 866.964966,105.000000   C864.188354,105.000000 861.411743,105.000000 858.019165,105.000000   C858.019165,102.125290 858.019165,99.557549 858.064758,96.540237  z"
   id="path60" />
<path
   fill="#8F8F8F"
   opacity="1.000000"
   stroke="none"
   d=" M923.116089,23.623699   C930.962036,29.406237 938.271362,28.121201 942.615967,19.574183   C942.208496,23.946457 941.616394,28.575573 940.984985,33.605347   C935.952271,34.054077 930.958740,34.102146 925.507080,34.081390   C924.387451,30.684916 923.726013,27.357271 923.116089,23.623699  z"
   id="path61" />
<path
   fill="#909090"
   opacity="1.000000"
   stroke="none"
   d=" M384.052643,24.472309   C392.972900,29.227320 398.788513,27.818686 403.596252,19.254807   C403.262787,23.804266 402.630676,28.502609 401.976624,33.607544   C396.962280,34.051407 391.969849,34.088688 386.519653,34.060623   C385.380859,30.959417 384.699860,27.923557 384.052643,24.472309  z"
   id="path62" />
<path
   fill="#909090"
   opacity="1.000000"
   stroke="none"
   d=" M957.957886,49.440815   C964.008545,49.011082 970.086548,49.011082 977.309265,49.011082   C975.051270,52.471428 973.298950,55.156830 971.250793,58.025330   C967.190247,58.208427 963.425476,58.208427 959.164185,58.208427   C958.734924,55.172295 958.360168,52.521423 957.957886,49.440815  z"
   id="path63" />
<path
   fill="#8E8E8F"
   opacity="1.000000"
   stroke="none"
   d=" M876.311218,67.995888   C876.377563,63.947159 876.230652,59.551785 877.316040,55.485321   C878.340027,51.648869 880.749634,47.567211 885.525879,48.273335   C890.257507,48.972843 889.563232,53.595413 889.960327,57.536293   C882.775635,56.043514 878.158264,59.457161 876.311218,67.995888  z"
   id="path64" />
<path
   fill="#8E8E8F"
   opacity="1.000000"
   stroke="none"
   d=" M202.311493,67.995712   C202.377808,63.947021 202.230774,59.551682 203.316132,55.485271   C204.340088,51.648880 206.749664,47.567169 211.525925,48.273346   C216.257462,48.972908 215.563309,53.595394 215.960327,57.536304   C208.776016,56.043587 204.157837,59.457844 202.311493,67.995712  z"
   id="path65" />
<path
   fill="#2F344F"
   opacity="1.000000"
   stroke="none"
   d=" M300.699921,122.037125   C300.589905,122.534790 300.452271,122.702477 300.346191,122.681335   C300.164093,94.732521 300.088074,66.804848 300.015015,38.402748   C300.339569,39.178165 300.941498,40.428051 300.941376,41.677864   C300.938263,68.298401 300.867493,94.918930 300.699921,122.037125  z"
   id="path66" />
<path
   fill="#44495E"
   opacity="1.000000"
   stroke="none"
   d=" M437.864563,78.343094   C437.540558,76.519478 437.042236,74.245880 437.035797,71.970886   C436.977234,51.283985 437.004456,30.596842 437.010620,9.438952   C437.342438,10.359808 437.953461,11.751033 437.955658,13.143220   C437.989746,34.726227 437.944916,56.309364 437.864563,78.343094  z"
   id="path67" />
<path
   fill="#606571"
   opacity="1.000000"
   stroke="none"
   d=" M477.915344,78.418137   C477.588287,76.783524 477.045227,74.689468 477.039124,72.593842   C476.978302,51.712292 477.006134,30.830486 477.016235,9.480913   C477.349091,10.382533 477.955383,11.751438 477.958099,13.121532   C478.000702,34.733582 477.965729,56.345787 477.915344,78.418137  z"
   id="path68" />
<path
   fill="#3D4259"
   opacity="1.000000"
   stroke="none"
   d=" M52.909775,95.611984   C52.868786,96.083710 52.403744,95.982109 52.175842,95.913498   C51.966034,78.947586 51.964748,62.050220 52.026543,45.153088   C52.034336,43.021263 52.373631,40.890648 52.750748,38.396996   C52.945026,57.069763 52.947895,76.105011 52.909775,95.611984  z"
   id="path69" />
<path
   fill="#505465"
   opacity="1.000000"
   stroke="none"
   d=" M235.903534,95.603195   C235.855133,96.074043 235.381027,95.988235 235.148132,95.926727   C234.936966,81.200768 234.958725,66.536316 234.996307,51.398312   C235.342560,52.286690 235.954208,53.647465 235.959824,55.010742   C236.014923,68.384377 235.969101,81.758415 235.903534,95.603195  z"
   id="path70" />
<path
   fill="#505465"
   opacity="1.000000"
   stroke="none"
   d=" M909.903625,95.603340   C909.855225,96.074219 909.381042,95.988304 909.148071,95.926765   C908.936951,81.200775 908.958740,66.536324 908.996216,51.398308   C909.342468,52.286659 909.954163,53.647411 909.959778,55.010658   C910.014954,68.384361 909.969177,81.758469 909.903625,95.603340  z"
   id="path71" />
<path
   fill="#606571"
   opacity="1.000000"
   stroke="none"
   d=" M402.947571,78.485626   C402.619720,77.032578 402.060883,75.114822 402.048248,73.193466   C401.968781,61.113850 402.010834,49.033443 402.018433,36.485779   C402.349640,37.553360 402.949127,39.087006 402.957336,40.623806   C403.023865,53.088623 402.979584,65.554024 402.947571,78.485626  z"
   id="path72" />
<path
   fill="#363C54"
   opacity="1.000000"
   stroke="none"
   d=" M333.882996,74.392815   C333.559326,69.943275 333.122253,65.041740 333.037445,60.134121   C332.903656,52.386616 333.006317,44.635025 333.012390,36.411835   C333.343414,37.505894 333.945892,39.071819 333.954315,40.640926   C334.013733,51.739613 333.951233,62.838955 333.882996,74.392815  z"
   id="path73" />
<path
   fill="#474C5F"
   opacity="1.000000"
   stroke="none"
   d=" M367.889740,71.386528   C367.566010,66.288971 367.148285,60.738403 367.016724,55.181061   C366.872589,49.091545 366.992615,42.995773 367.006500,36.431404   C367.348572,37.341770 367.962891,38.722038 367.969849,40.105370   C368.021637,50.380085 367.952850,60.655403 367.889740,71.386528  z"
   id="path74" />
<path
   fill="#626672"
   opacity="1.000000"
   stroke="none"
   d=" M167.842896,73.309219   C167.542191,65.648079 167.234116,57.536358 167.002945,49.422455   C166.912994,46.265316 166.996399,43.103233 167.011932,39.475189   C167.351593,40.199139 167.960983,41.390472 167.964523,42.583603   C167.994415,52.674805 167.913727,62.766335 167.842896,73.309219  z"
   id="path75" />
<path
   fill="#626672"
   opacity="1.000000"
   stroke="none"
   d=" M841.842957,73.309273   C841.542297,65.648117 841.234314,57.536396 841.003052,49.422489   C840.913086,46.265343 840.996338,43.103260 841.011841,39.475208   C841.351501,40.199112 841.960938,41.390404 841.964478,42.583485   C841.994385,52.674751 841.913757,62.766338 841.842957,73.309273  z"
   id="path76" />
<path
   fill="#474C5F"
   opacity="1.000000"
   stroke="none"
   d=" M875.909790,95.606537   C875.863159,96.077614 875.391296,95.981346 875.159424,95.916382   C875.132690,87.132271 875.337830,78.413124 875.756226,69.335861   C875.965149,77.696976 875.960815,86.416222 875.909790,95.606537  z"
   id="path77" />
<path
   fill="#474C5F"
   opacity="1.000000"
   stroke="none"
   d=" M201.909866,95.606705   C201.863251,96.077805 201.391373,95.981400 201.159485,95.916405   C201.132721,87.132317 201.337845,78.413216 201.756271,69.336021   C201.965210,77.697151 201.960846,86.416374 201.909866,95.606705  z"
   id="path78" />
<path
   fill="#474C5F"
   opacity="1.000000"
   stroke="none"
   d=" M1089.909790,95.606407   C1089.863037,96.077446 1089.391724,95.981445 1089.160156,95.916710   C1089.133667,87.466583 1089.338745,79.081192 1089.756470,70.337509   C1089.964966,78.364609 1089.960693,86.749992 1089.909790,95.606407  z"
   id="path79" />
<path
   fill="#8F8F8F"
   opacity="1.000000"
   stroke="none"
   d=" M316.078247,88.440918   C316.577972,88.942543 317.053101,89.782349 317.221191,90.843842   C316.627319,90.303383 316.340485,89.541245 316.078247,88.440918  z"
   id="path80" />
<path
   fill="#8F8F8F"
   opacity="1.000000"
   stroke="none"
   d=" M1008.075439,83.435654   C1008.552490,83.919159 1009.006653,84.743256 1009.193542,85.821526   C1008.635010,85.309219 1008.343811,84.542732 1008.075439,83.435654  z"
   id="path81" />
<path
   fill="#909090"
   opacity="1.000000"
   stroke="none"
   d=" M495.065643,82.413025   C495.521698,82.884628 495.958008,83.701012 496.166656,84.800941   C495.641296,84.308929 495.343567,83.533363 495.065643,82.413025  z"
   id="path82" />

<path
   fill="#8E8E8F"
   opacity="1.000000"
   stroke="none"
   d=" M642.983765,43.618839   C635.434570,33.336838 626.675903,33.059345 619.241089,38.091030   C617.310425,39.397633 615.855469,41.951279 615.037537,44.238136   C613.583374,48.303856 612.782715,52.603310 611.728516,57.212132   C612.468689,50.610363 612.520264,43.447285 614.090942,36.634426   C615.778442,29.314734 620.413086,26.134874 626.686035,26.009472   C633.497681,25.873302 638.500122,29.260891 641.100708,36.047295   C641.980286,38.342587 642.376343,40.823132 642.983765,43.618839  z"
   id="path84" />




<path
   fill="#8D8D8E"
   opacity="1.000000"
   stroke="none"
   d=" M1265.792236,58.406651   C1257.800415,53.988503 1254.049316,58.509270 1251.361328,66.964798   C1249.057129,62.038544 1252.455933,50.722446 1256.832764,48.176582   C1259.891846,46.397270 1262.429199,47.351753 1263.741943,50.414478   C1264.762573,52.795685 1265.065186,55.484650 1265.792236,58.406651  z"
   id="path89" />

<path
   fill="#8C8C8D"
   opacity="1.000000"
   stroke="none"
   d=" M1185.041504,44.529842   C1183.847900,45.025333 1182.706787,45.124123 1181.589844,45.220833   C1180.041626,50.250732 1178.519531,55.195942 1176.946289,60.532627   C1175.974243,60.074596 1174.116333,58.946274 1174.273438,58.417458   C1176.554565,50.749992 1179.105713,43.162876 1182.756836,35.479252   C1183.536011,38.363880 1184.315063,41.248512 1185.041504,44.529842  z"
   id="path91" />

<path
   fill="#8E8E8F"
   opacity="1.000000"
   stroke="none"
   d=" M1333.047974,57.736351   C1325.065918,55.486977 1322.966675,56.349987 1319.360718,65.961700   C1317.165039,61.259899 1320.115845,51.155060 1324.299927,48.370594   C1326.977051,46.589005 1329.621582,46.891994 1331.057739,49.750378   C1332.205688,52.035378 1332.446411,54.776257 1333.047974,57.736351  z"
   id="path93" />

<path
   fill="#8F8F8F"
   opacity="1.000000"
   stroke="none"
   d=" M281.102356,56.501404   C277.933167,57.226749 274.460236,56.717499 271.863922,57.992828   C268.113708,59.834972 266.797760,63.814789 266.920044,68.467392   C264.932800,62.931248 265.930450,57.261330 268.581757,51.797222   C269.067688,50.795826 269.889465,49.462311 270.787445,49.247131   C273.687317,48.552265 277.144562,47.265240 279.493469,48.278275   C280.914124,48.890980 280.680603,53.339260 281.102356,56.501404  z"
   id="path95" /><path
   fill="#8f8f8f"
   opacity="1"
   stroke="none"
   d="m 754.99796,56.57858 c -3.16919,0.72535 -6.64212,0.2161 -9.23844,1.49143 -3.75021,1.84214 -5.06616,5.82196 -4.94388,10.47456 -1.98724,-5.53614 -0.98959,-11.20606 1.66172,-16.67017 0.48593,-1.00139 1.3077,-2.33491 2.20568,-2.55009 2.89988,-0.69487 6.35712,-1.98189 8.70603,-0.96886 1.42065,0.61271 1.18713,5.06099 1.60889,8.22313 z"
   id="path95-7" />

<path
   fill="#8E8E8F"
   opacity="1.000000"
   stroke="none"
   d=" M821.943420,56.482872   C820.967651,56.951923 819.992004,56.997841 819.016113,57.004574   C811.023193,57.059708 809.970520,57.870872 807.356812,65.990257   C807.326111,62.288219 807.375671,58.338673 807.986877,54.478069   C808.250061,52.816181 809.323242,50.521145 810.649414,49.946278   C813.478516,48.719925 816.944641,47.381184 819.727783,47.996590   C824.059631,48.954422 821.125549,53.304607 821.943420,56.482872  z"
   id="path97" />

<path
   fill="#8E8E8F"
   opacity="1.000000"
   stroke="none"
   d=" M147.943344,56.482922   C146.967529,56.951962 145.991898,56.997845 145.015991,57.004570   C137.023224,57.059669 135.970612,57.870811 133.356781,65.990280   C133.326080,62.288231 133.375458,58.338665 133.986771,54.478085   C134.249939,52.816181 135.323242,50.521172 136.649460,49.946266   C139.478485,48.719898 142.944626,47.381187 145.727814,47.996605   C150.059677,48.954460 147.125610,53.304611 147.943344,56.482922  z"
   id="path99" />

<path
   fill="#8F8F90"
   opacity="1.000000"
   stroke="none"
   d=" M528.964478,58.590225   C521.013977,53.449303 515.487488,56.142368 514.362793,62.954304   C512.497864,59.046116 514.114319,50.982895 516.987732,48.493725   C519.982239,45.899639 524.674072,46.726170 526.718567,50.624699   C527.917786,52.911327 528.243408,55.656059 528.964478,58.590225  z"
   id="path101" />
<path
   fill="#8e8e8f"
   opacity="1"
   stroke="none"
   d="m 1028.8499,48.908058 c 2.497,-2.672676 5.3131,-4.257454 7.9737,-1.702923 1.3141,1.261647 2.3608,2.338843 1.3537,4.234427 -1.0275,1.933973 -2.3831,2.744111 -3.0705,3.234226 -2.6381,1.880869 -4.9833,3.926687 -8.9579,5.67082 -0.9695,-3.651569 0.4289,-7.431495 2.701,-11.43655 z"
   id="path102"
   sodipodi:nodetypes="cssscc" />
</svg>
